<?xml version="1.0" encoding="utf-8"?>
<!-- Generator: Adobe Illustrator 16.0.0, SVG Export Plug-In . SVG Version: 6.00 Build 0)  -->
<!DOCTYPE svg PUBLIC "-//W3C//DTD SVG 1.1//EN" "http://www.w3.org/Graphics/SVG/1.1/DTD/svg11.dtd">
<svg version="1.1" id="Layer_1" xmlns="http://www.w3.org/2000/svg" xmlns:xlink="http://www.w3.org/1999/xlink" x="0px" y="0px"
	 width="34.721px" height="31.508px" viewBox="32.568 35.513 34.721 31.508" enable-background="new 32.568 35.513 34.721 31.508"
	 xml:space="preserve">
<g>
	<path fill="#FFFFFF" d="M62.072,38.302c0.238,0.176,0.398,0.281,0.543,0.404c0.486,0.417,0.685,0.916,0.523,1.569
		c-0.125,0.511,0.469,1.108,1,1c0.666-0.136,1.168,0.063,1.611,0.555c0.395,0.436,0.832,0.831,1.24,1.253
		c0.396,0.41,0.402,0.839-0.003,1.23c-0.271,0.261-0.552,0.545-0.884,0.7c-0.236,0.111-0.567,0.046-0.854,0.021
		c-0.305-0.026-0.606-0.145-0.908-0.138c-1.115,0.023-1.796,0.948-1.434,2.104c0.311,0.988-0.082,1.606-0.776,2.173
		c-0.324,0.264-0.719,0.26-1.039-0.046c-0.552-0.528-1.098-1.064-1.618-1.624c-0.307-0.329-0.381-0.742-0.278-1.193
		c0.129-0.567-0.375-1.211-0.923-1.102c-0.765,0.152-1.316-0.102-1.78-0.673c-0.055-0.068-0.122-0.126-0.188-0.185
		c-0.021-0.019-0.051-0.027-0.109-0.056c-0.094,0.086-0.203,0.177-0.303,0.277c-3.305,3.304-6.609,6.608-9.913,9.913
		c-1.005,1.006-1.22,2.395-0.539,3.633c0.332,0.604,0.692,1.192,1.064,1.771c1.148,1.789,0.851,3.979-0.742,5.385
		c-1.466,1.293-3.74,1.283-5.298-0.023c-0.077-0.064-0.156-0.125-0.247-0.197c-1.176,1.635-2.725,2.335-4.684,1.779
		c-1.559-0.441-2.535-1.531-2.824-3.126c-0.341-1.884,0.425-3.315,2.047-4.368c-0.127-0.094-0.235-0.18-0.349-0.254
		c-1.862-1.223-2.4-3.727-1.201-5.592c1.217-1.893,3.712-2.441,5.618-1.246c0.634,0.396,1.271,0.793,1.931,1.145
		c1.181,0.631,2.563,0.402,3.516-0.549c3.43-3.428,6.859-6.857,10.288-10.287c2.214-2.213,4.427-4.427,6.64-6.64
		c0.537-0.537,0.688-0.536,1.223-0.001c0.219,0.218,0.438,0.436,0.655,0.655c0.269,0.271,0.256,0.555-0.002,0.813
		C62.785,37.671,62.473,37.937,62.072,38.302z M38.963,62.969c0.007-1.242-1.004-2.284-2.237-2.306
		c-1.229-0.021-2.28,1.007-2.295,2.243c-0.015,1.271,1.006,2.325,2.255,2.328C37.918,65.236,38.957,64.203,38.963,62.969z
		 M40.869,62.115c-0.017,1.293,0.979,2.328,2.248,2.336c1.222,0.009,2.262-1.007,2.278-2.223c0.017-1.281-0.993-2.326-2.254-2.334
		C41.913,59.887,40.885,60.891,40.869,62.115z M36.661,53.418c-1.273-0.004-2.306,1.02-2.3,2.276
		c0.006,1.244,1.023,2.249,2.281,2.25c1.245,0.002,2.273-1.015,2.278-2.253C38.924,54.452,37.899,53.421,36.661,53.418z"/>
</g>
</svg>
